<?xml version="1.0" encoding="UTF-8" standalone="no"?>
<!-- Created with Inkscape (http://www.inkscape.org/) -->

<svg
   width="20mm"
   height="20mm"
   viewBox="0 0 20 20"
   version="1.1"
   id="svg852"
   inkscape:version="1.1 (c68e22c387, 2021-05-23)"
   sodipodi:docname="safari-pinned-tab.svg"
   inkscape:export-filename="/home/mbarkmin/Cloud/Projekte/blackyellowcycling/favicon.png"
   inkscape:export-xdpi="650.23999"
   inkscape:export-ydpi="650.23999"
   xmlns:inkscape="http://www.inkscape.org/namespaces/inkscape"
   xmlns:sodipodi="http://sodipodi.sourceforge.net/DTD/sodipodi-0.dtd"
   xmlns="http://www.w3.org/2000/svg"
   xmlns:svg="http://www.w3.org/2000/svg">
  <sodipodi:namedview
     id="namedview854"
     pagecolor="#505050"
     bordercolor="#ffffff"
     borderopacity="1"
     inkscape:pageshadow="0"
     inkscape:pageopacity="0"
     inkscape:pagecheckerboard="1"
     inkscape:document-units="mm"
     showgrid="false"
     fit-margin-top="0"
     fit-margin-left="0"
     fit-margin-right="0"
     fit-margin-bottom="0"
     inkscape:zoom="3.9566173"
     inkscape:cx="-26.537821"
     inkscape:cy="53.075641"
     inkscape:window-width="1920"
     inkscape:window-height="1011"
     inkscape:window-x="0"
     inkscape:window-y="32"
     inkscape:window-maximized="1"
     inkscape:current-layer="layer1" />
  <defs
     id="defs849" />
  <g
     inkscape:label="Ebene 1"
     inkscape:groupmode="layer"
     id="layer1"
     transform="translate(-100.50483,-59.254548)">
    <g
       id="g942"
       transform="translate(2.7421843,1.5474716)"
       style="fill:#000000">
      <g
         aria-label="BYC"
         id="text2726"
         style="font-size:16.9333px;line-height:2.45;font-family:BrowalliaUPC;-inkscape-font-specification:BrowalliaUPC;letter-spacing:1.79123px;stroke-width:0.264583;fill:#000000"
         transform="translate(37.700002,-4.2345705)">
        <path
           d="m 70.318046,75.512061 -0.627471,-0.173788 q 0.249628,0.69539 0.388158,1.269139 0.146026,0.570271 0.22378,1.071953 0.08873,0.505703 0.11028,0.905854 0.05465,1.414718 -0.830424,1.825248 -0.540045,0.250492 -1.287207,-0.0045 -0.747162,-0.25498 -1.520977,-0.862178 -0.770336,-0.599697 -1.385009,-1.335396 -0.618696,-0.724719 -0.935291,-1.407276 -0.528817,-1.140096 -0.404502,-1.972477 0.131815,-0.83586 0.866877,-1.176808 0.510044,-0.236576 1.381012,-0.166617 0.87097,0.06996 2.277774,0.410896 -0.255283,-0.628968 -0.223556,-0.953571 0.03923,-0.328082 0.316748,-0.456807 0.172515,-0.08002 0.307751,-0.02426 0.135236,0.05576 0.249277,0.203378 0.121544,0.144139 0.39725,0.581346 0.27919,0.444705 0.710142,1.13802 1.384302,0.351375 2.186044,0.763332 0.812721,0.415978 1.232155,1.12375 0.03536,0.05652 0.06667,0.124018 0.03479,0.075 -0.0027,0.0924 -0.045,0.02087 -0.320039,-0.06118 -0.271555,-0.07456 -0.876523,-0.258783 -0.601489,-0.176726 -1.426594,-0.422903 0.841579,1.323143 1.495608,2.104388 0.665008,0.785266 1.21476,1.086247 0.549751,0.300981 0.962286,0.109632 0.502542,-0.233097 0.501422,-0.82501 -0.0011,-0.591912 -0.467315,-1.596997 -0.25745,-0.555047 -0.70395,-1.222921 -0.44302,-0.660374 -0.856899,-1.179322 -0.410399,-0.511446 -0.787636,-0.892445 -0.366258,-0.376977 -0.441264,-0.342187 -0.0225,0.01044 -0.02413,0.06588 0.03546,0.430155 -0.05454,0.471904 -0.120011,0.05566 -0.9869,-0.909393 -0.859387,-0.968537 -1.040298,-1.35857 -0.128725,-0.277523 0.148798,-0.406249 0.330027,-0.153078 1.463424,0.05036 1.144377,0.207459 1.614016,0.59117 0.162525,0.134245 0.634781,0.680801 0.472257,0.546556 0.985177,1.220079 0.5164,0.681025 0.990731,1.408904 0.474332,0.72788 0.752657,1.32793 0.657543,1.417619 0.478011,2.366755 -0.172031,0.945658 -0.937095,1.300522 -0.517544,0.240056 -1.150664,0.132688 -0.629639,-0.09987 -1.37725,-0.591619 -0.747609,-0.491751 -1.585038,-1.452245 -0.833949,-0.952993 -1.702276,-2.3731 z m -1.336362,-0.346268 q -0.645951,-0.174331 -1.148623,-0.314862 -0.491692,-0.136509 -0.779334,-0.167149 -0.276662,-0.02662 -0.501682,0.07775 -0.36003,0.166995 -0.474579,0.666731 -0.103571,0.503756 0.219982,1.201315 0.299199,0.645054 0.861687,1.268244 0.573468,0.627211 1.170618,0.951778 0.600627,0.332068 0.975659,0.158115 0.322527,-0.1496 0.362071,-0.614544 0.03954,-0.464945 -0.15085,-1.288068 -0.182892,-0.826603 -0.534949,-1.939314 z"
           style="font-family:'Brush Script MT';-inkscape-font-specification:'Brush Script MT';fill:#000000"
           id="path14400" />
        <path
           d="m 62.840888,70.011271 0.108182,-0.60362 q 0.05409,-0.309549 0.192322,-0.505596 0.138231,-0.196048 0.486814,-0.42821 0.342574,-0.237321 1.06979,-0.670689 1.748927,-1.047307 2.722556,-1.047307 0.294493,0 0.414694,0.103184 0.126211,0.103182 0.126211,0.361139 0,0.180571 -0.162271,0.495279 -0.156261,0.314708 -0.582976,0.995715 -0.420703,0.681007 -0.745247,1.222718 -0.264442,0.443687 -0.601005,0.944124 -0.336564,0.495278 -0.450755,0.681007 -0.114191,0.18573 -0.114191,0.278594 0,0.103183 0.07813,0.18057 0.07813,0.07223 0.192321,0.07223 0.156262,0 0.348584,-0.144456 0.198332,-0.144456 0.769287,-0.624256 0.276463,-0.237321 0.588986,-0.562348 0.318533,-0.325026 0.787318,-0.835781 0.468784,-0.510756 0.865447,-0.949283 0.246413,-0.273435 0.444745,-0.490119 0.198332,-0.216684 0.336563,-0.330186 0.144241,-0.11866 0.228382,-0.11866 0.07212,0 0.234392,0.154774 l 0.144242,0.159934 q 0.162271,0.196047 0.162271,0.283753 0,0.103183 -0.450754,0.758394 -0.444744,0.650053 -0.757267,1.129854 -0.312524,0.474641 -0.811358,1.377492 -0.492825,0.897692 -0.949589,1.99659 1.220041,-0.78935 1.670796,-1.052466 0.450754,-0.268276 0.655096,-0.268276 0.138231,0 0.138231,0.09802 0,0.108342 -0.132221,0.283753 -0.132221,0.170252 -0.354593,0.381777 -0.222372,0.206366 -0.673127,0.598461 -0.444743,0.397254 -0.973629,0.856419 -0.324543,0.283753 -0.631056,0.66037 -0.306512,0.376618 -0.474794,0.582984 -0.168282,0.206366 -0.306513,0.237321 -0.204342,0.05159 -0.372623,-0.07739 -0.168282,-0.128979 -0.168282,-0.407573 0,-0.196048 0.228382,-0.809986 0.234392,-0.613939 0.703177,-1.527107 0.276462,-0.54687 0.564945,-1.03183 0.288483,-0.490119 0.661106,-1.073103 0.378633,-0.588143 0.739237,-1.114375 0.360604,-0.526234 0.613026,-0.897692 -0.601005,0.675848 -1.196001,1.315582 -0.588986,0.634575 -1.322213,1.341378 -0.727217,0.701644 -1.472464,1.315583 -0.324543,0.263117 -0.468784,0.355981 -0.138232,0.09802 -0.366614,0.09802 -0.144241,0 -0.282472,-0.0877 -0.132222,-0.08255 -0.222373,-0.216684 -0.09015,-0.139298 -0.09015,-0.268276 0,-0.216684 0.07212,-0.381777 0.07813,-0.165093 0.264443,-0.495278 0.817368,-1.418766 1.189992,-1.944999 1.334232,-1.836656 1.334232,-2.0585 0,-0.07223 -0.0601,-0.1135 -0.0601,-0.04643 -0.150251,-0.04643 -0.168282,0 -0.402674,0.128978 -0.234393,0.12382 -0.588986,0.371459 -0.354593,0.247639 -0.865448,0.593302 -0.504845,0.345663 -1.06378,0.660371 -0.222372,0.123819 -0.498835,0.294071 -0.282472,0.170252 -0.324543,0.170252 -0.08414,0 -0.08414,-0.07223 0,-0.06707 0.03606,-0.283753 z"
           style="font-family:'Brush Script MT';-inkscape-font-specification:'Brush Script MT';fill:#000000;stroke-width:0.178188"
           id="path14402" />
        <path
           d="m 75.274522,66.977699 v 0.222749 q -0.59852,0.64083 -1.10085,1.055484 -0.49876,0.418082 -0.97615,0.640831 -0.47739,0.226175 -0.92272,0.226175 -0.38477,0 -0.66265,-0.147357 -0.27432,-0.147356 -0.416826,-0.431789 -0.138941,-0.281005 -0.138941,-0.668245 0,-0.304994 0.09975,-0.644257 0.103316,-0.34269 0.295697,-0.688807 0.19239,-0.349544 0.47027,-0.719649 0.28145,-0.370105 0.65908,-0.777906 0.39189,-0.421508 0.77309,-0.726502 0.3812,-0.308421 0.69115,-0.483193 0.30995,-0.174772 0.57358,-0.260445 0.2672,-0.08567 0.44176,-0.08567 0.17813,0 0.30283,0.08225 0.12469,0.08225 0.19238,0.239883 0.0677,0.157638 0.0677,0.363252 0,0.387239 -0.27432,0.863578 -0.27432,0.472913 -0.68403,0.914982 -0.4097,0.442071 -0.78377,0.723076 -0.37051,0.277579 -0.5344,0.277579 -0.11043,0 -0.20662,-0.08225 -0.0926,-0.08567 -0.0926,-0.191906 0,-0.195333 0.21376,-0.472912 0.21732,-0.277579 0.47027,-0.507181 0.25651,-0.233029 0.30639,-0.233029 0.0249,0 0.0249,0.02056 0,0.03084 -0.0392,0.106234 -0.0356,0.07539 -0.0356,0.09253 0,0.02741 0.0214,0.02741 0.0606,0 0.34914,-0.311848 0.28857,-0.311848 0.52727,-0.68538 0.24225,-0.376959 0.24225,-0.616842 0,-0.09938 -0.0463,-0.150783 -0.0427,-0.05483 -0.13182,-0.05483 -0.24938,0 -0.75883,0.390667 -0.5059,0.38724 -1.04029,0.990374 -0.53083,0.599707 -0.88709,1.240537 -0.35626,0.64083 -0.35626,1.12745 0,0.281006 0.0855,0.469485 0.0891,0.18848 0.25651,0.291286 0.171,0.102808 0.4097,0.102808 0.51658,0 1.1721,-0.38724 0.65552,-0.38724 1.44286,-1.141157 z"
           style="font-family:'Brush Script MT';-inkscape-font-specification:'Brush Script MT';stroke-width:0.111811;fill:#000000"
           id="path14404" />
      </g>
    </g>
  </g>
</svg>
